<?xml version="1.0" standalone="no"?>
<!DOCTYPE svg PUBLIC "-//W3C//DTD SVG 20010904//EN"
 "http://www.w3.org/TR/2001/REC-SVG-20010904/DTD/svg10.dtd">
<svg version="1.0" xmlns="http://www.w3.org/2000/svg"
 width="1920.000000pt" height="1162.000000pt" viewBox="0 0 1920.000000 1162.000000"
 preserveAspectRatio="xMidYMid meet">

<g transform="translate(0.000000,1162.000000) scale(0.100000,-0.100000)"
fill="#000000" stroke="none">
<path d="M11250 11605 c-256 -53 -470 -211 -589 -435 -16 -30 -104 -257 -196
-505 -479 -1286 -912 -2452 -1040 -2795 -79 -212 -360 -968 -625 -1680 -265
-712 -566 -1522 -670 -1800 -1030 -2769 -1223 -3290 -1238 -3345 -24 -85 -23
-316 2 -405 86 -311 317 -539 626 -616 102 -26 297 -26 395 0 82 21 214 81
279 125 115 80 242 231 291 346 17 40 743 1990 1425 3825 121 327 267 718 525
1410 132 354 1264 3398 1574 4233 116 312 218 599 226 638 35 165 12 371 -59
523 -93 201 -266 364 -467 440 -145 54 -318 70 -459 41z"/>
<path d="M4970 10954 c-14 -2 -52 -9 -85 -15 -88 -16 -204 -64 -287 -118 -46
-30 -281 -243 -644 -582 -313 -294 -707 -662 -875 -819 -1282 -1200 -2495
-2335 -2659 -2488 -107 -100 -216 -209 -241 -241 -245 -316 -233 -780 28
-1071 26 -30 358 -344 738 -699 379 -355 757 -709 840 -787 1360 -1275 2712
-2536 2755 -2571 69 -55 215 -128 299 -149 441 -110 875 126 1023 556 32 93
33 99 32 260 0 153 -2 171 -28 250 -32 98 -79 188 -138 267 -23 30 -209 211
-413 402 -203 191 -971 909 -1705 1596 -734 686 -1377 1288 -1429 1337 l-95
89 45 43 c24 24 328 308 674 632 2373 2217 2798 2615 2860 2680 193 200 276
487 219 762 -77 373 -403 649 -787 666 -56 3 -113 3 -127 0z"/>
<path d="M14015 10950 c-320 -51 -584 -280 -685 -595 -34 -106 -40 -319 -12
-436 27 -110 59 -184 125 -283 54 -81 53 -80 3157 -2984 278 -260 505 -476
505 -481 0 -4 -533 -506 -1185 -1116 -652 -609 -1248 -1167 -1325 -1240 -77
-72 -355 -332 -617 -578 -498 -466 -538 -510 -603 -650 -53 -115 -67 -178 -72
-327 -4 -113 -2 -149 16 -222 91 -386 424 -649 820 -650 176 0 361 58 494 154
26 19 208 185 405 369 196 184 676 633 1067 998 390 366 807 755 925 866 118
111 573 536 1010 945 437 408 832 779 878 824 131 128 214 267 259 436 26 97
23 299 -6 405 -30 111 -90 227 -164 317 -35 43 -542 525 -1162 1104 -605 565
-1237 1156 -1405 1314 -168 157 -442 414 -610 571 -168 157 -492 460 -720 674
-228 214 -442 408 -474 432 -79 58 -185 109 -282 133 -92 24 -253 33 -339 20z"/>
</g>
</svg>
